<svg xmlns="http://www.w3.org/2000/svg" viewBox="0 0 128 128" width="128" height="128" role="img" aria-label="log-fingerprint">
  <rect width="128" height="128" rx="24" fill="#0f172a"/>
  <rect x="18" y="24" width="92" height="80" rx="10" fill="#1e293b" stroke="#a78bfa" stroke-width="4"/>
  <path d="M36 44h56M36 56h40M36 68h48M36 80h28" stroke="#94a3b8" stroke-width="4" stroke-linecap="round"/>
  <circle cx="96" cy="88" r="22" fill="#7c3aed"/>
  <path d="M88 88c2-6 6-10 8-10s6 4 8 10M90 94c2-4 4-6 6-6s4 2 6 6M94 100c1-2 2-3 2-3s1 1 2 3" fill="none" stroke="#ede9fe" stroke-width="2.5" stroke-linecap="round"/>
</svg>
